<svg class="img-fluid" id="outputsvg" xmlns="http://www.w3.org/2000/svg" style="transform: matrix(1, 0, 0, 1, 0, 0); transform-origin: 50% 50% 0px; cursor: move; max-height: 423.16px; transition: none 0s ease 0s;" width="2130" height="2130" viewBox="0 0 21300 21300"><g id="l6NDZHC1TMwrJbkIk39dchX" fill="rgb(12,14,8)" style="transform: none; transform-origin: 50% 50% 0px;"><g style="transform: none;"><path id="p1FZ6ANEnS" d="M 2630 10735 c 0 -8645 0 -8645 4765 -8645 3170 0 4765 3 4765 10 0 6 62 10 165 10 103 0 165 4 165 10 0 6 45 10 115 10 70 0 115 4 115 10 0 6 42 10 105 10 63 0 105 4 105 10 0 6 33 10 80 10 47 0 80 4 80 10 0 6 28 10 65 10 51 0 65 3 65 15 0 12 13 15 60 15 33 0 60 4 60 10 0 6 20 10 45 10 25 0 45 5 45 10 0 6 23 10 50 10 28 0 50 5 50 10 0 6 23 10 50 10 28 0 50 5 50 10 0 6 25 10 55 10 30 0 55 5 55 10 0 6 18 10 40 10 22 0 40 5 40 10 0 6 25 10 55 10 30 0 55 5 55 10 0 6 18 10 40 10 22 0 40 5 40 10 0 6 14 10 30 10 17 0 30 5 30 10 0 6 18 10 40 10 22 0 40 5 40 10 0 6 16 10 35 10 19 0 35 5 35 10 0 6 14 10 30 10 20 0 30 5 30 15 0 10 10 15 30 15 17 0 30 5 30 10 0 6 14 10 30 10 17 0 30 5 30 10 0 6 16 10 35 10 19 0 35 5 35 10 0 6 14 10 30 10 17 0 30 5 30 10 0 6 14 10 30 10 17 0 30 5 30 10 0 6 14 10 30 10 17 0 30 5 30 10 0 6 11 10 25 10 14 0 25 5 25 10 0 6 14 10 30 10 17 0 30 5 30 10 0 6 14 10 30 10 17 0 30 5 30 10 0 6 9 10 20 10 11 0 20 5 20 10 0 6 14 10 30 10 17 0 30 5 30 10 0 6 11 10 25 10 14 0 25 5 25 10 0 6 9 10 20 10 11 0 20 7 20 15 0 10 10 15 30 15 17 0 30 5 30 10 0 6 8 10 18 10 10 0 24 9 32 20 8 11 22 20 32 20 10 0 18 5 18 10 0 6 11 10 25 10 14 0 25 5 25 10 0 6 9 10 20 10 11 0 20 5 20 10 0 6 14 10 30 10 17 0 30 5 30 10 0 6 8 10 18 10 10 0 24 9 32 20 8 11 22 20 32 20 10 0 18 5 18 10 0 6 9 10 20 10 11 0 20 5 20 10 0 6 11 10 25 10 16 0 25 6 25 15 0 8 8 15 18 15 10 0 24 9 32 20 8 11 22 20 32 20 10 0 18 5 18 10 0 6 8 10 18 10 10 0 24 9 32 20 8 11 22 20 32 20 10 0 18 5 18 10 0 6 10 10 23 10 12 0 29 9 37 20 8 11 21 20 30 20 9 0 22 9 30 20 8 11 21 20 30 20 9 0 22 9 30 20 8 11 22 20 32 20 10 0 18 5 18 11 0 17 27 39 47 39 10 0 25 9 33 20 8 11 21 20 28 20 7 0 31 18 52 40 21 22 44 40 50 40 7 0 25 14 40 30 15 17 36 30 45 30 16 0 45 22 45 35 0 10 89 95 100 95 6 0 33 23 60 50 27 28 51 50 55 50 7 0 75 67 75 75 0 7 188 195 195 195 8 0 55 48 55 56 0 3 14 19 30 34 17 15 30 33 30 40 0 6 22 33 50 60 27 27 50 54 50 60 0 12 24 40 35 40 10 0 35 28 35 39 0 6 5 11 10 11 6 0 10 7 10 16 0 9 14 29 30 44 17 15 30 33 30 40 0 7 13 25 30 40 16 15 30 34 30 42 0 7 9 20 20 28 11 8 20 24 20 35 0 11 9 27 20 35 11 8 20 22 20 32 0 10 7 18 15 18 8 0 15 8 15 18 0 10 9 24 20 32 11 8 20 21 20 30 0 9 9 22 20 30 11 8 20 22 20 32 0 10 5 18 10 18 6 0 10 11 10 25 0 14 5 25 10 25 6 0 10 8 10 18 0 10 9 24 20 32 11 8 20 22 20 32 0 10 5 18 10 18 6 0 10 9 10 20 0 11 5 20 10 20 6 0 10 9 10 20 0 11 5 20 10 20 6 0 10 11 10 25 0 16 6 25 15 25 8 0 15 9 15 20 0 11 5 20 10 20 6 0 10 9 10 20 0 11 5 20 10 20 6 0 10 9 10 20 0 11 5 20 10 20 6 0 10 9 10 20 0 11 5 20 10 20 6 0 10 9 10 20 0 11 5 20 10 20 6 0 10 16 10 35 0 19 5 35 10 35 6 0 10 9 10 20 0 11 5 20 10 20 6 0 10 9 10 20 0 11 5 20 10 20 6 0 10 14 10 30 0 17 5 30 10 30 6 0 10 14 10 30 0 17 5 30 10 30 6 0 10 11 10 25 0 14 5 25 10 25 6 0 10 14 10 30 0 17 5 30 10 30 6 0 10 14 10 30 0 20 5 30 15 30 10 0 15 10 15 30 0 17 5 30 10 30 6 0 10 16 10 35 0 19 5 35 10 35 6 0 10 14 10 30 0 17 5 30 10 30 6 0 10 14 10 30 0 17 5 30 10 30 6 0 10 18 10 40 0 22 5 40 10 40 6 0 10 20 10 45 0 25 5 45 10 45 6 0 10 18 10 40 0 22 5 40 10 40 6 0 10 18 10 40 0 22 5 40 10 40 6 0 10 25 10 55 0 30 5 55 10 55 6 0 10 23 10 50 0 28 5 50 10 50 6 0 10 23 10 50 0 28 5 50 10 50 6 0 10 32 10 75 0 60 3 75 15 75 12 0 15 16 15 85 0 50 4 85 10 85 6 0 10 37 10 90 0 53 4 90 10 90 6 0 10 48 10 125 0 77 4 125 10 125 7 0 10 157 10 450 0 293 -3 450 -10 450 -6 0 -10 58 -10 155 0 97 -4 155 -10 155 -6 0 -10 38 -10 95 0 57 -4 95 -10 95 -6 0 -10 30 -10 70 0 56 -3 70 -15 70 -12 0 -15 15 -15 75 0 43 -4 75 -10 75 -5 0 -10 23 -10 50 0 28 -4 50 -10 50 -5 0 -10 25 -10 55 0 30 -4 55 -10 55 -5 0 -10 23 -10 50 0 28 -4 50 -10 50 -5 0 -10 18 -10 40 0 22 -4 40 -10 40 -5 0 -10 25 -10 55 0 30 -4 55 -10 55 -5 0 -10 14 -10 30 0 17 -4 30 -10 30 -5 0 -10 14 -10 30 0 17 -4 30 -10 30 -5 0 -10 18 -10 40 0 22 -4 40 -10 40 -5 0 -10 16 -10 35 0 19 -4 35 -10 35 -5 0 -10 14 -10 30 0 17 -4 30 -10 30 -5 0 -10 14 -10 30 0 20 -5 30 -15 30 -10 0 -15 10 -15 30 0 17 -4 30 -10 30 -5 0 -10 11 -10 25 0 14 -4 25 -10 25 -5 0 -10 14 -10 30 0 17 -4 30 -10 30 -5 0 -10 14 -10 30 0 17 -4 30 -10 30 -5 0 -10 9 -10 20 0 11 -4 20 -10 20 -5 0 -10 14 -10 30 0 17 -4 30 -10 30 -5 0 -10 11 -10 25 0 14 -4 25 -10 25 -5 0 -10 9 -10 20 0 11 -4 20 -10 20 -5 0 -10 9 -10 20 0 11 -4 20 -10 20 -5 0 -10 14 -10 30 0 17 -4 30 -10 30 -5 0 -10 9 -10 20 0 11 -4 20 -10 20 -5 0 -10 9 -10 21 0 22 -22 49 -39 49 -6 0 -11 9 -11 20 0 11 -4 20 -10 20 -5 0 -10 14 -10 30 0 17 -4 30 -10 30 -5 0 -10 8 -10 18 0 10 -9 24 -20 32 -11 8 -20 22 -20 32 0 10 -4 18 -10 18 -5 0 -10 11 -10 25 0 14 -4 25 -10 25 -5 0 -10 8 -10 18 0 10 -9 24 -20 32 -11 8 -20 22 -20 32 0 10 -4 18 -10 18 -5 0 -10 8 -10 18 0 10 -9 24 -20 32 -11 8 -20 22 -20 32 0 10 -5 18 -11 18 -17 0 -39 27 -39 47 0 10 -9 25 -20 33 -11 8 -20 21 -20 30 0 9 -9 22 -20 30 -11 8 -20 21 -20 30 0 9 -9 22 -20 30 -11 8 -20 21 -20 30 0 9 -9 22 -20 30 -11 8 -20 23 -20 33 0 19 -62 87 -80 87 -5 0 -10 7 -10 16 0 8 -18 33 -40 54 -22 21 -40 45 -40 52 0 7 -9 20 -20 28 -11 8 -20 18 -20 23 0 5 -18 26 -40 47 -22 21 -40 44 -40 50 0 12 -24 40 -34 40 -8 0 -136 128 -136 135 0 7 -128 135 -136 135 -3 0 -23 18 -44 40 -21 22 -44 40 -50 40 -12 0 -40 24 -40 35 0 13 -91 95 -106 95 -8 0 -33 18 -54 40 -21 22 -44 40 -50 40 -7 0 -25 14 -40 30 -15 17 -33 30 -40 30 -12 0 -40 24 -40 35 0 13 -29 35 -45 35 -9 0 -30 14 -45 30 -15 17 -34 30 -42 30 -7 0 -20 9 -28 20 -8 11 -21 20 -30 20 -9 0 -22 9 -30 20 -8 11 -21 20 -30 20 -9 0 -22 9 -30 20 -8 11 -23 20 -33 20 -20 0 -47 22 -47 39 0 6 -8 11 -18 11 -10 0 -24 9 -32 20 -8 11 -22 20 -32 20 -10 0 -18 5 -18 10 0 6 -8 10 -18 10 -10 0 -24 9 -32 20 -8 11 -25 20 -37 20 -13 0 -23 5 -23 10 0 6 -9 10 -20 10 -11 0 -20 5 -20 10 0 6 -8 10 -18 10 -10 0 -24 9 -32 20 -8 11 -22 20 -32 20 -10 0 -18 5 -18 10 0 6 -9 10 -20 10 -11 0 -20 5 -20 10 0 6 -9 10 -20 10 -11 0 -20 5 -20 10 0 6 -11 10 -25 10 -16 0 -25 6 -25 15 0 8 -9 15 -20 15 -11 0 -20 5 -20 10 0 6 -9 10 -20 10 -11 0 -20 5 -20 10 0 6 -9 10 -20 10 -11 0 -20 5 -20 10 0 6 -9 10 -20 10 -11 0 -20 5 -20 10 0 6 -9 10 -20 10 -11 0 -20 5 -20 10 0 6 -11 10 -25 10 -14 0 -25 5 -25 10 0 6 -9 10 -20 10 -11 0 -20 5 -20 10 0 6 -13 10 -30 10 -16 0 -30 5 -30 10 0 6 -9 10 -20 10 -11 0 -20 5 -20 10 0 6 -9 10 -20 10 -11 0 -20 5 -20 10 0 6 -13 10 -30 10 -16 0 -30 5 -30 10 0 6 -11 10 -25 10 -16 0 -25 6 -25 15 0 10 -10 15 -30 15 -16 0 -30 5 -30 10 0 6 -9 10 -20 10 -11 0 -20 5 -20 10 0 6 -13 10 -30 10 -16 0 -30 5 -30 10 0 6 -9 10 -20 10 -11 0 -20 5 -20 10 0 6 5 10 10 10 6 0 10 8 10 18 0 10 9 24 20 32 11 8 20 21 20 28 0 8 14 27 30 42 16 15 30 36 30 47 0 10 9 25 20 33 11 8 20 21 20 30 0 9 9 22 20 30 11 8 20 20 20 28 0 16 24 42 39 42 6 0 11 8 11 18 0 10 9 24 20 32 11 8 20 23 20 33 0 11 13 32 30 47 16 15 30 34 30 42 0 7 9 20 20 28 11 8 20 21 20 30 0 9 9 22 20 30 11 8 20 21 20 30 0 9 9 22 20 30 11 8 20 23 20 33 0 20 22 47 39 47 6 0 11 8 11 18 0 10 9 24 20 32 11 8 20 21 20 30 0 9 9 22 20 30 11 8 20 21 20 30 0 9 9 22 20 30 11 8 20 20 20 27 0 7 5 13 10 13 6 0 10 8 10 18 0 10 9 24 20 32 11 8 20 21 20 30 0 9 9 22 20 30 11 8 20 22 20 32 0 10 5 18 11 18 15 0 39 26 39 42 0 8 9 20 20 28 11 8 20 23 20 33 0 11 13 32 30 47 16 15 30 34 30 42 0 7 9 20 20 28 11 8 20 21 20 30 0 9 9 22 20 30 11 8 20 22 20 32 0 10 5 18 10 18 6 0 10 7 10 15 0 8 5 15 10 15 6 0 10 9 10 20 0 11 5 20 11 20 15 0 39 26 39 42 0 8 9 20 20 28 11 8 20 21 20 30 0 9 9 22 20 30 11 8 20 21 20 30 0 9 9 22 20 30 11 8 20 23 20 33 0 11 14 32 30 47 17 15 30 33 30 40 0 14 25 40 39 40 6 0 11 8 11 18 0 10 9 24 20 32 11 8 20 22 20 32 0 10 5 18 10 18 6 0 10 7 10 15 0 8 5 15 10 15 6 0 10 8 10 18 0 10 9 24 20 32 11 8 20 21 20 28 0 8 13 27 30 42 16 15 30 34 30 42 0 7 9 20 20 28 11 8 20 22 20 32 0 10 7 18 15 18 8 0 15 7 15 15 0 8 5 15 10 15 6 0 10 8 10 18 0 10 9 24 20 32 11 8 20 21 20 30 0 9 9 22 20 30 11 8 20 21 20 30 0 9 9 22 20 30 11 8 20 22 20 32 0 10 5 18 10 18 6 0 10 7 10 15 0 8 5 15 10 15 6 0 10 7 10 16 0 9 13 29 30 44 16 15 30 35 30 44 0 9 5 16 11 16 15 0 39 26 39 42 0 8 9 20 20 28 11 8 20 24 20 35 0 11 9 27 20 35 11 8 20 21 20 30 0 9 9 22 20 30 11 8 20 21 20 30 0 9 9 22 20 30 11 8 20 21 20 30 0 9 9 22 20 30 11 8 20 22 20 32 0 10 7 18 15 18 8 0 15 6 15 13 0 7 9 19 20 27 11 8 20 21 20 30 0 9 9 22 20 30 11 8 20 21 20 30 0 9 9 22 20 30 11 8 20 21 20 30 0 9 9 22 20 30 11 8 20 24 20 35 0 11 9 27 20 35 11 8 20 20 20 28 0 15 45 62 60 62 5 0 10 8 10 18 0 10 9 24 20 32 11 8 20 21 20 30 0 9 9 22 20 30 11 8 20 24 20 35 0 11 9 27 20 35 11 8 20 21 20 30 0 9 9 22 20 30 11 8 20 21 20 30 0 9 9 22 20 30 11 8 20 20 20 28 0 16 24 42 39 42 6 0 11 10 11 23 0 12 9 29 20 37 11 8 20 21 20 28 0 8 13 27 30 42 16 15 30 34 30 42 0 7 9 20 20 28 11 8 20 21 20 30 0 9 9 22 20 30 11 8 20 24 20 35 0 11 9 27 20 35 11 8 20 20 20 28 0 16 24 42 39 42 6 0 11 7 11 16 0 9 13 29 30 44 16 15 30 34 30 42 0 7 9 20 20 28 11 8 20 24 20 35 0 11 9 27 20 35 11 8 20 21 20 30 0 9 9 22 20 30 11 8 20 21 20 30 0 9 9 22 20 30 11 8 20 22 20 32 0 10 5 18 10 18 18 0 60 48 60 67 0 10 9 25 20 33 11 8 20 21 20 30 0 9 9 22 20 30 11 8 20 21 20 30 0 9 9 22 20 30 11 8 20 21 20 30 0 9 9 22 20 30 11 8 20 24 20 35 0 11 9 27 20 35 11 8 20 22 20 32 0 10 5 18 10 18 15 0 60 47 60 62 0 8 9 20 20 28 11 8 20 21 20 30 0 9 9 22 20 30 11 8 20 24 20 35 0 11 9 27 20 35 11 8 20 21 20 30 0 9 9 22 20 30 11 8 20 20 20 28 0 16 24 42 39 42 6 0 11 8 11 18 0 10 9 24 20 32 11 8 20 23 20 33 0 11 14 32 30 47 17 15 30 34 30 42 0 7 9 20 20 28 11 8 20 21 20 30 0 9 9 22 20 30 11 8 20 21 20 30 0 9 9 22 20 30 11 8 20 23 20 33 0 20 22 47 39 47 6 0 11 8 11 18 0 10 9 24 20 32 11 8 20 21 20 28 0 8 13 27 30 42 16 15 30 35 30 44 0 9 5 16 10 16 6 0 10 7 10 15 0 8 5 15 10 15 6 0 10 8 10 18 0 10 9 24 20 32 11 8 20 21 20 30 0 9 9 22 20 30 11 8 20 22 20 32 0 10 5 18 11 18 15 0 39 26 39 42 0 8 9 20 20 28 11 8 20 25 20 37 0 23 0 23 -8010 23 -8010 0 -8010 0 -8010 -8645 z  m 9340 5325 c 0 -5 -4 -10 -10 -10 -5 0 -10 -8 -10 -18 0 -10 -9 -24 -20 -32 -11 -8 -20 -24 -20 -35 0 -11 -9 -27 -20 -35 -11 -8 -20 -21 -20 -30 0 -9 -9 -22 -20 -30 -11 -8 -20 -22 -20 -32 0 -10 -5 -18 -10 -18 -17 0 -60 -47 -60 -65 0 -8 -4 -15 -10 -15 -5 0 -10 -10 -10 -23 0 -12 -9 -29 -20 -37 -11 -8 -20 -21 -20 -30 0 -9 -9 -22 -20 -30 -11 -8 -20 -21 -20 -30 0 -9 -9 -22 -20 -30 -11 -8 -20 -21 -20 -30 0 -9 -9 -22 -20 -30 -11 -8 -20 -23 -20 -33 0 -20 -22 -47 -39 -47 -6 0 -11 -8 -11 -18 0 -10 -9 -24 -20 -32 -11 -8 -20 -21 -20 -30 0 -9 -9 -22 -20 -30 -11 -8 -20 -21 -20 -30 0 -9 -9 -22 -20 -30 -11 -8 -20 -24 -20 -35 0 -11 -9 -27 -20 -35 -11 -8 -20 -21 -20 -30 0 -9 -9 -22 -20 -30 -11 -8 -20 -20 -20 -28 0 -16 -24 -42 -39 -42 -6 0 -11 -8 -11 -18 0 -10 -9 -24 -20 -32 -11 -8 -20 -24 -20 -35 0 -11 -9 -27 -20 -35 -11 -8 -20 -21 -20 -30 0 -9 -9 -22 -20 -30 -11 -8 -20 -21 -20 -30 0 -9 -9 -22 -20 -30 -11 -8 -20 -21 -20 -30 0 -9 -9 -22 -20 -30 -11 -8 -20 -22 -20 -32 0 -10 -4 -18 -10 -18 -5 0 -10 -7 -10 -15 0 -8 -4 -15 -10 -15 -5 0 -10 -9 -10 -20 0 -11 -5 -20 -11 -20 -15 0 -39 -26 -39 -42 0 -8 -9 -20 -20 -28 -11 -8 -20 -21 -20 -28 0 -8 -13 -27 -30 -42 -16 -15 -30 -36 -30 -47 0 -10 -9 -25 -20 -33 -11 -8 -20 -21 -20 -30 0 -9 -9 -22 -20 -30 -11 -8 -20 -20 -20 -28 0 -16 -24 -42 -39 -42 -6 0 -11 -8 -11 -18 0 -10 -9 -24 -20 -32 -11 -8 -20 -22 -20 -32 0 -10 -4 -18 -10 -18 -5 0 -10 -7 -10 -15 0 -8 -4 -15 -10 -15 -5 0 -10 -9 -10 -20 0 -11 -4 -20 -10 -20 -5 0 -10 -7 -10 -16 0 -9 -13 -29 -30 -44 -16 -15 -30 -34 -30 -42 0 -7 -9 -20 -20 -28 -11 -8 -20 -22 -20 -32 0 -10 -4 -18 -10 -18 -5 0 -10 -7 -10 -15 0 -8 -4 -15 -10 -15 -5 0 -10 -9 -10 -20 0 -11 -5 -20 -11 -20 -15 0 -39 -26 -39 -42 0 -8 -9 -20 -20 -28 -11 -8 -20 -22 -20 -32 0 -17 -96 -18 -2165 -18 -2165 0 -2165 0 -2165 1165 0 1165 0 1165 2935 1165 1950 0 2935 -3 2935 -10 z  m 80 -5640 c 0 -6 28 -10 65 -10 37 0 65 -4 65 -10 0 -5 23 -10 50 -10 28 0 50 -4 50 -10 0 -5 25 -10 55 -10 30 0 55 -4 55 -10 0 -5 14 -10 30 -10 17 0 30 -4 30 -10 0 -5 18 -10 40 -10 22 0 40 -4 40 -10 0 -5 20 -10 45 -10 25 0 45 -4 45 -10 0 -5 14 -10 30 -10 17 0 30 -4 30 -10 0 -5 9 -10 20 -10 11 0 20 -7 20 -15 0 -10 10 -15 30 -15 17 0 30 -4 30 -10 0 -5 9 -10 20 -10 11 0 20 -4 20 -10 0 -5 16 -10 35 -10 19 0 35 -4 35 -10 0 -5 9 -10 20 -10 11 0 20 -4 20 -10 0 -5 9 -10 20 -10 11 0 20 -4 20 -10 0 -5 9 -10 20 -10 11 0 20 -4 20 -10 0 -5 9 -10 20 -10 11 0 20 -4 20 -10 0 -5 9 -10 20 -10 11 0 20 -4 20 -10 0 -5 7 -10 15 -10 8 0 15 -4 15 -10 0 -5 9 -10 20 -10 11 0 20 -4 20 -10 0 -5 9 -10 20 -10 11 0 20 -4 20 -10 0 -5 7 -10 16 -10 15 0 44 -23 44 -35 0 -12 28 -35 42 -35 8 0 20 -9 28 -20 8 -11 23 -20 33 -20 11 0 32 -13 47 -30 15 -16 33 -30 39 -30 11 0 121 -105 121 -115 0 -8 47 -55 55 -55 10 0 135 -130 135 -141 0 -6 14 -24 30 -39 17 -15 30 -33 30 -39 0 -6 5 -11 10 -11 6 0 10 -8 10 -18 0 -10 9 -24 20 -32 11 -8 20 -22 20 -32 0 -10 5 -18 11 -18 16 0 39 -26 39 -44 0 -9 5 -16 10 -16 6 0 10 -9 10 -20 0 -11 5 -20 10 -20 6 0 10 -10 10 -23 0 -12 9 -29 20 -37 11 -8 20 -22 20 -32 0 -10 5 -18 10 -18 6 0 10 -9 10 -20 0 -11 5 -20 10 -20 6 0 10 -9 10 -20 0 -11 5 -20 10 -20 6 0 10 -13 10 -30 0 -16 5 -30 10 -30 6 0 10 -9 10 -20 0 -11 5 -20 10 -20 6 0 10 -16 10 -35 0 -19 5 -35 10 -35 6 0 10 -13 10 -30 0 -20 5 -30 15 -30 11 0 15 -11 15 -40 0 -22 5 -40 10 -40 6 0 10 -16 10 -35 0 -19 5 -35 10 -35 6 0 10 -18 10 -40 0 -22 5 -40 10 -40 6 0 10 -27 10 -60 0 -33 4 -60 10 -60 6 0 10 -28 10 -65 0 -37 4 -65 10 -65 6 0 10 -113 10 -320 0 -207 -4 -320 -10 -320 -6 0 -10 -35 -10 -85 0 -50 -4 -85 -10 -85 -6 0 -10 -27 -10 -60 0 -33 -4 -60 -10 -60 -5 0 -10 -25 -10 -55 0 -30 -4 -55 -10 -55 -5 0 -10 -18 -10 -40 0 -22 -4 -40 -10 -40 -5 0 -10 -13 -10 -30 0 -20 -5 -30 -15 -30 -10 0 -15 -11 -15 -35 0 -19 -4 -35 -10 -35 -5 0 -10 -13 -10 -30 0 -16 -4 -30 -10 -30 -5 0 -10 -13 -10 -30 0 -16 -4 -30 -10 -30 -5 0 -10 -9 -10 -20 0 -11 -4 -20 -10 -20 -5 0 -10 -9 -10 -20 0 -11 -4 -20 -10 -20 -5 0 -10 -11 -10 -25 0 -14 -4 -25 -10 -25 -5 0 -10 -9 -10 -20 0 -11 -4 -20 -10 -20 -5 0 -10 -9 -10 -20 0 -11 -4 -20 -10 -20 -5 0 -10 -9 -10 -20 0 -11 -4 -20 -10 -20 -5 0 -10 -8 -10 -18 0 -10 -9 -24 -20 -32 -11 -8 -20 -25 -20 -37 0 -13 -5 -23 -11 -23 -15 0 -39 -26 -39 -42 0 -8 -9 -20 -20 -28 -11 -8 -20 -20 -20 -28 0 -7 -22 -35 -50 -62 -27 -27 -50 -56 -50 -64 0 -9 -4 -16 -10 -16 -5 0 -10 -5 -10 -10 0 -13 -66 -80 -77 -80 -5 0 -15 -9 -23 -20 -8 -11 -20 -20 -28 -20 -7 0 -35 -22 -62 -50 -27 -27 -54 -50 -60 -50 -14 0 -40 -25 -40 -39 0 -6 -9 -11 -21 -11 -12 0 -34 -13 -49 -30 -15 -17 -34 -30 -42 -30 -7 0 -20 -9 -28 -20 -8 -11 -22 -20 -32 -20 -10 0 -18 -4 -18 -10 0 -5 -9 -10 -20 -10 -11 0 -20 -4 -20 -10 0 -5 -9 -10 -20 -10 -11 0 -20 -4 -20 -10 0 -5 -10 -10 -23 -10 -12 0 -29 -9 -37 -20 -8 -12 -26 -20 -42 -20 -15 0 -28 -4 -28 -10 0 -5 -9 -10 -20 -10 -11 0 -20 -4 -20 -10 0 -5 -9 -10 -20 -10 -11 0 -20 -7 -20 -15 0 -8 -9 -15 -20 -15 -11 0 -20 -4 -20 -10 0 -5 -11 -10 -25 -10 -14 0 -25 -4 -25 -10 0 -5 -13 -10 -30 -10 -16 0 -30 -4 -30 -10 0 -5 -9 -10 -20 -10 -11 0 -20 -4 -20 -10 0 -5 -13 -10 -30 -10 -16 0 -30 -4 -30 -10 0 -5 -18 -10 -40 -10 -22 0 -40 -4 -40 -10 0 -5 -16 -10 -35 -10 -19 0 -35 -4 -35 -10 0 -5 -18 -10 -40 -10 -22 0 -40 -4 -40 -10 0 -5 -18 -10 -40 -10 -22 0 -40 -4 -40 -10 0 -5 -25 -10 -55 -10 -30 0 -55 -4 -55 -10 0 -5 -22 -10 -50 -10 -27 0 -50 -4 -50 -10 0 -6 -28 -10 -65 -10 -51 0 -65 -3 -65 -15 0 -12 -16 -15 -80 -15 -47 0 -80 -4 -80 -10 0 -6 -45 -10 -115 -10 -70 0 -115 -4 -115 -10 0 -7 -930 -10 -2770 -10 -2770 0 -2770 0 -2770 2445 0 2445 0 2445 2975 2445 1977 0 2975 -3 2975 -10 z "></path></g></g><g id="l3GmT4FPkNlGkf33BV9nl2v" fill="rgb(239,235,234)" style="transform: none; transform-origin: 50% 50% 0px;"><g style="transform: none;"><path id="pK8O8rYXW" d="M 0 10650 c 0 -10650 0 -10650 10650 -10650 10650 0 10650 0 10650 10650 0 10650 0 10650 -10650 10650 -10650 0 -10650 0 -10650 -10650 z  m 18640 8707 c 0 -7 -9 -19 -20 -27 -11 -8 -20 -20 -20 -28 0 -16 -24 -42 -39 -42 -6 0 -11 -8 -11 -18 0 -10 -9 -24 -20 -32 -11 -8 -20 -21 -20 -30 0 -9 -9 -22 -20 -30 -11 -8 -20 -22 -20 -32 0 -10 -4 -18 -10 -18 -5 0 -10 -7 -10 -15 0 -8 -4 -15 -10 -15 -5 0 -10 -7 -10 -16 0 -9 -13 -29 -30 -44 -16 -15 -30 -34 -30 -42 0 -7 -9 -20 -20 -28 -11 -8 -20 -22 -20 -32 0 -10 -5 -18 -11 -18 -17 0 -39 -27 -39 -47 0 -10 -9 -25 -20 -33 -11 -8 -20 -21 -20 -30 0 -9 -9 -22 -20 -30 -11 -8 -20 -21 -20 -30 0 -9 -9 -22 -20 -30 -11 -8 -20 -21 -20 -28 0 -8 -13 -27 -30 -42 -17 -15 -30 -36 -30 -47 0 -10 -9 -25 -20 -33 -11 -8 -20 -22 -20 -32 0 -10 -5 -18 -11 -18 -15 0 -39 -26 -39 -42 0 -8 -9 -20 -20 -28 -11 -8 -20 -21 -20 -30 0 -9 -9 -22 -20 -30 -11 -8 -20 -24 -20 -35 0 -11 -9 -27 -20 -35 -11 -8 -20 -21 -20 -30 0 -9 -9 -22 -20 -30 -11 -8 -20 -20 -20 -28 0 -15 -45 -62 -60 -62 -5 0 -10 -8 -10 -18 0 -10 -9 -24 -20 -32 -11 -8 -20 -24 -20 -35 0 -11 -9 -27 -20 -35 -11 -8 -20 -21 -20 -30 0 -9 -9 -22 -20 -30 -11 -8 -20 -21 -20 -30 0 -9 -9 -22 -20 -30 -11 -8 -20 -21 -20 -30 0 -9 -9 -22 -20 -30 -11 -8 -20 -23 -20 -33 0 -19 -42 -67 -60 -67 -5 0 -10 -8 -10 -18 0 -10 -9 -24 -20 -32 -11 -8 -20 -21 -20 -30 0 -9 -9 -22 -20 -30 -11 -8 -20 -21 -20 -30 0 -9 -9 -22 -20 -30 -11 -8 -20 -24 -20 -35 0 -11 -9 -27 -20 -35 -11 -8 -20 -21 -20 -28 0 -8 -13 -27 -30 -42 -17 -15 -30 -35 -30 -44 0 -9 -5 -16 -11 -16 -15 0 -39 -26 -39 -42 0 -8 -9 -20 -20 -28 -11 -8 -20 -24 -20 -35 0 -11 -9 -27 -20 -35 -11 -8 -20 -21 -20 -30 0 -9 -9 -22 -20 -30 -11 -8 -20 -21 -20 -28 0 -8 -13 -27 -30 -42 -16 -15 -30 -34 -30 -42 0 -7 -9 -20 -20 -28 -11 -8 -20 -25 -20 -37 0 -13 -5 -23 -11 -23 -15 0 -39 -26 -39 -42 0 -8 -9 -20 -20 -28 -11 -8 -20 -21 -20 -30 0 -9 -9 -22 -20 -30 -11 -8 -20 -21 -20 -30 0 -9 -9 -22 -20 -30 -11 -8 -20 -24 -20 -35 0 -11 -9 -27 -20 -35 -11 -8 -20 -21 -20 -30 0 -9 -9 -22 -20 -30 -11 -8 -20 -22 -20 -32 0 -10 -5 -18 -10 -18 -15 0 -60 -47 -60 -62 0 -8 -9 -20 -20 -28 -11 -8 -20 -24 -20 -35 0 -11 -9 -27 -20 -35 -11 -8 -20 -21 -20 -30 0 -9 -9 -22 -20 -30 -11 -8 -20 -21 -20 -30 0 -9 -9 -22 -20 -30 -11 -8 -20 -21 -20 -30 0 -9 -9 -22 -20 -30 -11 -8 -20 -20 -20 -27 0 -7 -7 -13 -15 -13 -8 0 -15 -8 -15 -18 0 -10 -9 -24 -20 -32 -11 -8 -20 -21 -20 -30 0 -9 -9 -22 -20 -30 -11 -8 -20 -21 -20 -30 0 -9 -9 -22 -20 -30 -11 -8 -20 -21 -20 -30 0 -9 -9 -22 -20 -30 -11 -8 -20 -24 -20 -35 0 -11 -9 -27 -20 -35 -11 -8 -20 -20 -20 -28 0 -16 -24 -42 -39 -42 -6 0 -11 -7 -11 -16 0 -9 -13 -29 -30 -44 -16 -15 -30 -35 -30 -44 0 -9 -4 -16 -10 -16 -5 0 -10 -7 -10 -15 0 -8 -4 -15 -10 -15 -5 0 -10 -8 -10 -18 0 -10 -9 -24 -20 -32 -11 -8 -20 -21 -20 -30 0 -9 -9 -22 -20 -30 -11 -8 -20 -21 -20 -30 0 -9 -9 -22 -20 -30 -11 -8 -20 -22 -20 -32 0 -10 -4 -18 -10 -18 -5 0 -10 -7 -10 -15 0 -8 -7 -15 -15 -15 -8 0 -15 -8 -15 -18 0 -10 -9 -24 -20 -32 -11 -8 -20 -21 -20 -28 0 -8 -14 -27 -30 -42 -16 -15 -30 -34 -30 -42 0 -7 -9 -20 -20 -28 -11 -8 -20 -22 -20 -32 0 -10 -4 -18 -10 -18 -5 0 -10 -7 -10 -15 0 -8 -4 -15 -10 -15 -5 0 -10 -8 -10 -18 0 -10 -9 -24 -20 -32 -11 -8 -20 -22 -20 -32 0 -10 -5 -18 -11 -18 -14 0 -39 -26 -39 -40 0 -7 -14 -25 -30 -40 -17 -15 -30 -36 -30 -47 0 -10 -9 -25 -20 -33 -11 -8 -20 -21 -20 -30 0 -9 -9 -22 -20 -30 -11 -8 -20 -21 -20 -30 0 -9 -9 -22 -20 -30 -11 -8 -20 -20 -20 -28 0 -16 -24 -42 -39 -42 -6 0 -11 -9 -11 -20 0 -11 -4 -20 -10 -20 -5 0 -10 -7 -10 -15 0 -8 -4 -15 -10 -15 -5 0 -10 -8 -10 -18 0 -10 -9 -24 -20 -32 -11 -8 -20 -21 -20 -30 0 -9 -9 -22 -20 -30 -11 -8 -20 -21 -20 -28 0 -8 -14 -27 -30 -42 -17 -15 -30 -36 -30 -47 0 -10 -9 -25 -20 -33 -11 -8 -20 -20 -20 -28 0 -16 -24 -42 -39 -42 -6 0 -11 -8 -11 -18 0 -10 -9 -24 -20 -32 -11 -8 -20 -21 -20 -30 0 -9 -9 -22 -20 -30 -11 -8 -20 -22 -20 -32 0 -10 -4 -18 -10 -18 -5 0 -10 -6 -10 -13 0 -7 -9 -19 -20 -27 -11 -8 -20 -21 -20 -30 0 -9 -9 -22 -20 -30 -11 -8 -20 -21 -20 -30 0 -9 -9 -22 -20 -30 -11 -8 -20 -22 -20 -32 0 -10 -5 -18 -11 -18 -17 0 -39 -27 -39 -47 0 -10 -9 -25 -20 -33 -11 -8 -20 -21 -20 -30 0 -9 -9 -22 -20 -30 -11 -8 -20 -21 -20 -30 0 -9 -9 -22 -20 -30 -11 -8 -20 -21 -20 -28 0 -8 -14 -27 -30 -42 -17 -15 -30 -36 -30 -47 0 -10 -9 -25 -20 -33 -11 -8 -20 -22 -20 -32 0 -10 -5 -18 -11 -18 -15 0 -39 -26 -39 -42 0 -8 -9 -20 -20 -28 -11 -8 -20 -21 -20 -30 0 -9 -9 -22 -20 -30 -11 -8 -20 -23 -20 -33 0 -11 -13 -32 -30 -47 -16 -15 -30 -34 -30 -42 0 -7 -9 -20 -20 -28 -11 -8 -20 -22 -20 -32 0 -10 -4 -18 -10 -18 -5 0 -10 -9 -10 -20 0 -13 7 -20 20 -20 11 0 20 -4 20 -10 0 -5 14 -10 30 -10 17 0 30 -4 30 -10 0 -5 9 -10 20 -10 11 0 20 -4 20 -10 0 -5 14 -10 30 -10 20 0 30 -5 30 -15 0 -9 9 -15 25 -15 14 0 25 -4 25 -10 0 -5 14 -10 30 -10 17 0 30 -4 30 -10 0 -5 9 -10 20 -10 11 0 20 -4 20 -10 0 -5 9 -10 20 -10 11 0 20 -4 20 -10 0 -5 14 -10 30 -10 17 0 30 -4 30 -10 0 -5 9 -10 20 -10 11 0 20 -4 20 -10 0 -5 11 -10 25 -10 14 0 25 -4 25 -10 0 -5 9 -10 20 -10 11 0 20 -4 20 -10 0 -5 9 -10 20 -10 11 0 20 -4 20 -10 0 -5 9 -10 20 -10 11 0 20 -4 20 -10 0 -5 9 -10 20 -10 11 0 20 -4 20 -10 0 -5 9 -10 20 -10 11 0 20 -7 20 -15 0 -9 9 -15 25 -15 14 0 25 -4 25 -10 0 -5 9 -10 20 -10 11 0 20 -4 20 -10 0 -5 9 -10 20 -10 11 0 20 -4 20 -10 0 -5 8 -10 18 -10 10 0 24 -9 32 -20 8 -11 22 -20 32 -20 10 0 18 -4 18 -10 0 -5 9 -10 20 -10 11 0 20 -4 20 -10 0 -5 10 -10 23 -10 12 0 29 -9 37 -20 8 -11 22 -20 32 -20 10 0 18 -4 18 -10 0 -5 8 -10 18 -10 10 0 24 -9 32 -20 8 -11 22 -20 32 -20 10 0 18 -5 18 -11 0 -17 27 -39 47 -39 10 0 25 -9 33 -20 8 -11 21 -20 30 -20 9 0 22 -9 30 -20 8 -11 21 -20 30 -20 9 0 22 -9 30 -20 8 -11 21 -20 28 -20 8 0 27 -13 42 -30 15 -16 36 -30 45 -30 16 0 45 -22 45 -35 0 -11 28 -35 40 -35 7 0 25 -13 40 -30 15 -16 33 -30 40 -30 6 0 29 -18 50 -40 21 -22 46 -40 54 -40 15 0 106 -82 106 -95 0 -11 28 -35 40 -35 6 0 29 -18 50 -40 21 -22 41 -40 44 -40 8 0 136 -128 136 -135 0 -7 128 -135 136 -135 10 0 34 -28 34 -40 0 -6 18 -29 40 -50 22 -21 40 -42 40 -47 0 -5 9 -15 20 -23 11 -8 20 -21 20 -28 0 -7 18 -31 40 -52 22 -21 40 -46 40 -54 0 -9 5 -16 10 -16 18 0 80 -68 80 -87 0 -10 9 -25 20 -33 11 -8 20 -21 20 -30 0 -9 9 -22 20 -30 11 -8 20 -21 20 -30 0 -9 9 -22 20 -30 11 -8 20 -21 20 -30 0 -9 9 -22 20 -30 11 -8 20 -23 20 -33 0 -20 22 -47 39 -47 6 0 11 -8 11 -18 0 -10 9 -24 20 -32 11 -8 20 -22 20 -32 0 -10 5 -18 10 -18 6 0 10 -8 10 -18 0 -10 9 -24 20 -32 11 -8 20 -22 20 -32 0 -10 5 -18 10 -18 6 0 10 -11 10 -25 0 -14 5 -25 10 -25 6 0 10 -8 10 -18 0 -10 9 -24 20 -32 11 -8 20 -22 20 -32 0 -10 5 -18 10 -18 6 0 10 -13 10 -30 0 -16 5 -30 10 -30 6 0 10 -9 10 -20 0 -11 5 -20 11 -20 17 0 39 -27 39 -49 0 -12 5 -21 10 -21 6 0 10 -9 10 -20 0 -11 5 -20 10 -20 6 0 10 -13 10 -30 0 -16 5 -30 10 -30 6 0 10 -9 10 -20 0 -11 5 -20 10 -20 6 0 10 -9 10 -20 0 -11 5 -20 10 -20 6 0 10 -11 10 -25 0 -14 5 -25 10 -25 6 0 10 -13 10 -30 0 -16 5 -30 10 -30 6 0 10 -9 10 -20 0 -11 5 -20 10 -20 6 0 10 -13 10 -30 0 -16 5 -30 10 -30 6 0 10 -13 10 -30 0 -16 5 -30 10 -30 6 0 10 -11 10 -25 0 -14 5 -25 10 -25 6 0 10 -13 10 -30 0 -20 5 -30 15 -30 10 0 15 -10 15 -30 0 -16 5 -30 10 -30 6 0 10 -13 10 -30 0 -16 5 -30 10 -30 6 0 10 -16 10 -35 0 -19 5 -35 10 -35 6 0 10 -18 10 -40 0 -22 5 -40 10 -40 6 0 10 -13 10 -30 0 -16 5 -30 10 -30 6 0 10 -13 10 -30 0 -16 5 -30 10 -30 6 0 10 -25 10 -55 0 -30 5 -55 10 -55 6 0 10 -18 10 -40 0 -22 5 -40 10 -40 6 0 10 -22 10 -50 0 -27 5 -50 10 -50 6 0 10 -25 10 -55 0 -30 5 -55 10 -55 6 0 10 -22 10 -50 0 -27 5 -50 10 -50 6 0 10 -32 10 -75 0 -60 3 -75 15 -75 12 0 15 -14 15 -70 0 -40 4 -70 10 -70 6 0 10 -38 10 -95 0 -57 4 -95 10 -95 6 0 10 -58 10 -155 0 -97 4 -155 10 -155 7 0 10 -153 10 -440 0 -287 -3 -440 -10 -440 -6 0 -10 -48 -10 -125 0 -77 -4 -125 -10 -125 -6 0 -10 -37 -10 -90 0 -53 -4 -90 -10 -90 -6 0 -10 -35 -10 -85 0 -69 -3 -85 -15 -85 -12 0 -15 -15 -15 -75 0 -43 -4 -75 -10 -75 -5 0 -10 -22 -10 -50 0 -27 -4 -50 -10 -50 -5 0 -10 -22 -10 -50 0 -27 -4 -50 -10 -50 -5 0 -10 -25 -10 -55 0 -30 -4 -55 -10 -55 -5 0 -10 -18 -10 -40 0 -22 -4 -40 -10 -40 -5 0 -10 -18 -10 -40 0 -22 -4 -40 -10 -40 -5 0 -10 -20 -10 -45 0 -25 -4 -45 -10 -45 -5 0 -10 -18 -10 -40 0 -22 -4 -40 -10 -40 -5 0 -10 -13 -10 -30 0 -16 -4 -30 -10 -30 -5 0 -10 -13 -10 -30 0 -16 -4 -30 -10 -30 -5 0 -10 -16 -10 -35 0 -19 -4 -35 -10 -35 -5 0 -10 -13 -10 -30 0 -20 -5 -30 -15 -30 -10 0 -15 -10 -15 -30 0 -16 -4 -30 -10 -30 -5 0 -10 -13 -10 -30 0 -16 -4 -30 -10 -30 -5 0 -10 -11 -10 -25 0 -14 -4 -25 -10 -25 -5 0 -10 -13 -10 -30 0 -16 -4 -30 -10 -30 -5 0 -10 -13 -10 -30 0 -16 -4 -30 -10 -30 -5 0 -10 -9 -10 -20 0 -11 -4 -20 -10 -20 -5 0 -10 -9 -10 -20 0 -11 -4 -20 -10 -20 -5 0 -10 -16 -10 -35 0 -19 -4 -35 -10 -35 -5 0 -10 -9 -10 -20 0 -11 -4 -20 -10 -20 -5 0 -10 -9 -10 -20 0 -11 -4 -20 -10 -20 -5 0 -10 -9 -10 -20 0 -11 -4 -20 -10 -20 -5 0 -10 -9 -10 -20 0 -11 -4 -20 -10 -20 -5 0 -10 -9 -10 -20 0 -11 -7 -20 -15 -20 -9 0 -15 -9 -15 -25 0 -14 -4 -25 -10 -25 -5 0 -10 -9 -10 -20 0 -11 -4 -20 -10 -20 -5 0 -10 -9 -10 -20 0 -11 -4 -20 -10 -20 -5 0 -10 -8 -10 -18 0 -10 -9 -24 -20 -32 -11 -8 -20 -22 -20 -32 0 -10 -4 -18 -10 -18 -5 0 -10 -11 -10 -25 0 -14 -4 -25 -10 -25 -5 0 -10 -8 -10 -18 0 -10 -9 -24 -20 -32 -11 -8 -20 -21 -20 -30 0 -9 -9 -22 -20 -30 -11 -8 -20 -22 -20 -32 0 -10 -7 -18 -15 -18 -8 0 -15 -8 -15 -18 0 -10 -9 -24 -20 -32 -11 -8 -20 -24 -20 -35 0 -11 -9 -27 -20 -35 -11 -8 -20 -21 -20 -28 0 -8 -13 -27 -30 -42 -16 -15 -30 -33 -30 -40 0 -7 -13 -25 -30 -40 -16 -15 -30 -35 -30 -44 0 -9 -4 -16 -10 -16 -5 0 -10 -5 -10 -11 0 -11 -25 -39 -35 -39 -11 0 -35 -28 -35 -40 0 -6 -22 -33 -50 -60 -28 -27 -50 -54 -50 -60 0 -7 -13 -25 -30 -40 -16 -15 -30 -31 -30 -34 0 -8 -47 -56 -55 -56 -7 0 -195 -188 -195 -195 0 -8 -68 -75 -75 -75 -4 0 -28 -22 -55 -50 -27 -27 -54 -50 -60 -50 -11 0 -100 -85 -100 -95 0 -13 -29 -35 -45 -35 -9 0 -30 -13 -45 -30 -15 -17 -33 -30 -40 -30 -6 0 -29 -18 -50 -40 -21 -22 -45 -40 -52 -40 -7 0 -20 -9 -28 -20 -8 -11 -23 -20 -33 -20 -20 0 -47 -22 -47 -39 0 -6 -8 -11 -18 -11 -10 0 -24 -9 -32 -20 -8 -11 -21 -20 -30 -20 -9 0 -22 -9 -30 -20 -8 -11 -21 -20 -30 -20 -9 0 -22 -9 -30 -20 -8 -11 -25 -20 -37 -20 -13 0 -23 -4 -23 -10 0 -5 -8 -10 -18 -10 -10 0 -24 -9 -32 -20 -8 -11 -22 -20 -32 -20 -10 0 -18 -4 -18 -10 0 -5 -8 -10 -18 -10 -10 0 -24 -9 -32 -20 -8 -11 -22 -20 -32 -20 -10 0 -18 -7 -18 -15 0 -9 -9 -15 -25 -15 -14 0 -25 -4 -25 -10 0 -5 -9 -10 -20 -10 -11 0 -20 -4 -20 -10 0 -5 -8 -10 -18 -10 -10 0 -24 -9 -32 -20 -8 -11 -22 -20 -32 -20 -10 0 -18 -4 -18 -10 0 -5 -13 -10 -30 -10 -16 0 -30 -4 -30 -10 0 -5 -9 -10 -20 -10 -11 0 -20 -4 -20 -10 0 -5 -11 -10 -25 -10 -14 0 -25 -4 -25 -10 0 -5 -8 -10 -18 -10 -10 0 -24 -9 -32 -20 -8 -11 -22 -20 -32 -20 -10 0 -18 -4 -18 -10 0 -5 -13 -10 -30 -10 -20 0 -30 -5 -30 -15 0 -8 -9 -15 -20 -15 -11 0 -20 -4 -20 -10 0 -5 -11 -10 -25 -10 -14 0 -25 -4 -25 -10 0 -5 -13 -10 -30 -10 -16 0 -30 -4 -30 -10 0 -5 -9 -10 -20 -10 -11 0 -20 -4 -20 -10 0 -5 -13 -10 -30 -10 -16 0 -30 -4 -30 -10 0 -5 -13 -10 -30 -10 -16 0 -30 -4 -30 -10 0 -5 -11 -10 -25 -10 -14 0 -25 -4 -25 -10 0 -5 -13 -10 -30 -10 -16 0 -30 -4 -30 -10 0 -5 -13 -10 -30 -10 -16 0 -30 -4 -30 -10 0 -5 -13 -10 -30 -10 -16 0 -30 -4 -30 -10 0 -5 -16 -10 -35 -10 -19 0 -35 -4 -35 -10 0 -5 -13 -10 -30 -10 -16 0 -30 -4 -30 -10 0 -5 -13 -10 -30 -10 -20 0 -30 -5 -30 -15 0 -10 -10 -15 -30 -15 -16 0 -30 -4 -30 -10 0 -5 -16 -10 -35 -10 -19 0 -35 -4 -35 -10 0 -5 -18 -10 -40 -10 -22 0 -40 -4 -40 -10 0 -5 -13 -10 -30 -10 -16 0 -30 -4 -30 -10 0 -5 -18 -10 -40 -10 -22 0 -40 -4 -40 -10 0 -5 -25 -10 -55 -10 -30 0 -55 -4 -55 -10 0 -5 -18 -10 -40 -10 -22 0 -40 -4 -40 -10 0 -5 -25 -10 -55 -10 -30 0 -55 -4 -55 -10 0 -5 -22 -10 -50 -10 -27 0 -50 -4 -50 -10 0 -5 -22 -10 -50 -10 -27 0 -50 -4 -50 -10 0 -5 -20 -10 -45 -10 -25 0 -45 -4 -45 -10 0 -6 -27 -10 -60 -10 -47 0 -60 -3 -60 -15 0 -12 -14 -15 -65 -15 -37 0 -65 -4 -65 -10 0 -6 -33 -10 -80 -10 -47 0 -80 -4 -80 -10 0 -6 -42 -10 -105 -10 -63 0 -105 -4 -105 -10 0 -6 -45 -10 -115 -10 -70 0 -115 -4 -115 -10 0 -6 -62 -10 -165 -10 -103 0 -165 -4 -165 -10 0 -7 -1592 -10 -4755 -10 -4755 0 -4755 0 -4755 8635 0 8635 0 8635 8000 8635 6491 0 8000 -2 8000 -13 z "></path><path id="p2sYdHrda" d="M 6090 14905 c 0 -1175 0 -1175 2175 -1175 2078 0 2175 1 2175 18 0 10 9 24 20 32 11 8 20 20 20 28 0 16 24 42 39 42 6 0 11 9 11 20 0 11 5 20 10 20 6 0 10 7 10 15 0 8 5 15 10 15 6 0 10 8 10 18 0 10 9 24 20 32 11 8 20 21 20 28 0 8 14 27 30 42 17 15 30 35 30 44 0 9 5 16 10 16 6 0 10 9 10 20 0 11 5 20 10 20 6 0 10 7 10 15 0 8 5 15 10 15 6 0 10 8 10 18 0 10 9 24 20 32 11 8 20 22 20 32 0 10 5 18 11 18 15 0 39 26 39 42 0 8 9 20 20 28 11 8 20 21 20 30 0 9 9 22 20 30 11 8 20 23 20 33 0 11 14 32 30 47 17 15 30 34 30 42 0 7 9 20 20 28 11 8 20 20 20 28 0 16 24 42 39 42 6 0 11 9 11 20 0 11 5 20 10 20 6 0 10 7 10 15 0 8 5 15 10 15 6 0 10 8 10 18 0 10 9 24 20 32 11 8 20 21 20 30 0 9 9 22 20 30 11 8 20 21 20 30 0 9 9 22 20 30 11 8 20 21 20 30 0 9 9 22 20 30 11 8 20 24 20 35 0 11 9 27 20 35 11 8 20 22 20 32 0 10 5 18 11 18 15 0 39 26 39 42 0 8 9 20 20 28 11 8 20 21 20 30 0 9 9 22 20 30 11 8 20 24 20 35 0 11 9 27 20 35 11 8 20 21 20 30 0 9 9 22 20 30 11 8 20 21 20 30 0 9 9 22 20 30 11 8 20 22 20 32 0 10 5 18 11 18 17 0 39 27 39 47 0 10 9 25 20 33 11 8 20 21 20 30 0 9 9 22 20 30 11 8 20 21 20 30 0 9 9 22 20 30 11 8 20 21 20 30 0 9 9 22 20 30 11 8 20 25 20 37 0 13 5 23 10 23 6 0 10 7 10 15 0 18 43 65 60 65 5 0 10 8 10 18 0 10 9 24 20 32 11 8 20 21 20 30 0 9 9 22 20 30 11 8 20 24 20 35 0 11 9 27 20 35 11 8 20 22 20 32 0 10 5 18 10 18 6 0 10 9 10 20 0 20 -7 20 -2945 20 -2945 0 -2945 0 -2945 -1175 z "></path><path id="pDZj8q0VX" d="M 6090 7985 c 0 -2455 0 -2455 2780 -2455 1847 0 2780 3 2780 10 0 6 45 10 115 10 70 0 115 4 115 10 0 6 33 10 80 10 64 0 80 3 80 15 0 12 14 15 65 15 37 0 65 4 65 10 0 6 23 10 50 10 28 0 50 5 50 10 0 6 25 10 55 10 30 0 55 5 55 10 0 6 18 10 40 10 22 0 40 5 40 10 0 6 18 10 40 10 22 0 40 5 40 10 0 6 16 10 35 10 19 0 35 5 35 10 0 6 18 10 40 10 22 0 40 5 40 10 0 6 14 10 30 10 17 0 30 5 30 10 0 6 9 10 20 10 11 0 20 5 20 10 0 6 14 10 30 10 17 0 30 5 30 10 0 6 11 10 25 10 14 0 25 5 25 10 0 6 9 10 20 10 11 0 20 7 20 15 0 8 9 15 20 15 11 0 20 5 20 10 0 6 9 10 20 10 11 0 20 5 20 10 0 6 13 10 28 10 16 0 34 8 42 20 8 11 25 20 37 20 13 0 23 5 23 10 0 6 9 10 20 10 11 0 20 5 20 10 0 6 9 10 20 10 11 0 20 5 20 10 0 6 8 10 18 10 10 0 24 9 32 20 8 11 21 20 28 20 8 0 27 14 42 30 15 17 37 30 49 30 12 0 21 5 21 11 0 14 26 39 40 39 6 0 33 23 60 50 27 28 55 50 62 50 8 0 20 9 28 20 8 11 18 20 23 20 11 0 77 67 77 80 0 5 5 10 10 10 6 0 10 7 10 16 0 8 22 37 50 64 27 27 50 55 50 62 0 8 9 20 20 28 11 8 20 20 20 28 0 16 24 42 39 42 6 0 11 10 11 23 0 12 9 29 20 37 11 8 20 22 20 32 0 10 5 18 10 18 6 0 10 9 10 20 0 11 5 20 10 20 6 0 10 9 10 20 0 11 5 20 10 20 6 0 10 9 10 20 0 11 5 20 10 20 6 0 10 11 10 25 0 14 5 25 10 25 6 0 10 9 10 20 0 11 5 20 10 20 6 0 10 9 10 20 0 11 5 20 10 20 6 0 10 14 10 30 0 17 5 30 10 30 6 0 10 14 10 30 0 17 5 30 10 30 6 0 10 16 10 35 0 24 5 35 15 35 10 0 15 10 15 30 0 17 5 30 10 30 6 0 10 18 10 40 0 22 5 40 10 40 6 0 10 25 10 55 0 30 5 55 10 55 6 0 10 27 10 60 0 33 4 60 10 60 6 0 10 35 10 85 0 50 4 85 10 85 6 0 10 117 10 330 0 213 -4 330 -10 330 -6 0 -10 28 -10 65 0 37 -4 65 -10 65 -6 0 -10 27 -10 60 0 33 -4 60 -10 60 -5 0 -10 18 -10 40 0 22 -4 40 -10 40 -5 0 -10 16 -10 35 0 19 -4 35 -10 35 -5 0 -10 18 -10 40 0 29 -4 40 -15 40 -10 0 -15 10 -15 30 0 17 -4 30 -10 30 -5 0 -10 16 -10 35 0 19 -4 35 -10 35 -5 0 -10 9 -10 20 0 11 -4 20 -10 20 -5 0 -10 14 -10 30 0 17 -4 30 -10 30 -5 0 -10 9 -10 20 0 11 -4 20 -10 20 -5 0 -10 9 -10 20 0 11 -4 20 -10 20 -5 0 -10 8 -10 18 0 10 -9 24 -20 32 -11 8 -20 25 -20 37 0 13 -4 23 -10 23 -5 0 -10 9 -10 20 0 11 -4 20 -10 20 -5 0 -10 7 -10 16 0 18 -23 44 -39 44 -6 0 -11 8 -11 18 0 10 -9 24 -20 32 -11 8 -20 22 -20 32 0 10 -4 18 -10 18 -5 0 -10 5 -10 11 0 6 -14 24 -30 39 -17 15 -30 33 -30 39 0 11 -125 141 -135 141 -8 0 -55 47 -55 55 0 10 -110 115 -121 115 -6 0 -24 14 -39 30 -15 17 -36 30 -47 30 -10 0 -25 9 -33 20 -8 11 -20 20 -28 20 -14 0 -42 23 -42 35 0 12 -29 35 -44 35 -9 0 -16 5 -16 10 0 6 -9 10 -20 10 -11 0 -20 5 -20 10 0 6 -9 10 -20 10 -11 0 -20 5 -20 10 0 6 -7 10 -15 10 -8 0 -15 5 -15 10 0 6 -9 10 -20 10 -11 0 -20 5 -20 10 0 6 -9 10 -20 10 -11 0 -20 5 -20 10 0 6 -9 10 -20 10 -11 0 -20 5 -20 10 0 6 -9 10 -20 10 -11 0 -20 5 -20 10 0 6 -9 10 -20 10 -11 0 -20 5 -20 10 0 6 -16 10 -35 10 -19 0 -35 5 -35 10 0 6 -9 10 -20 10 -11 0 -20 5 -20 10 0 6 -13 10 -30 10 -20 0 -30 5 -30 15 0 8 -9 15 -20 15 -11 0 -20 5 -20 10 0 6 -13 10 -30 10 -16 0 -30 5 -30 10 0 6 -20 10 -45 10 -25 0 -45 5 -45 10 0 6 -18 10 -40 10 -22 0 -40 5 -40 10 0 6 -13 10 -30 10 -16 0 -30 5 -30 10 0 6 -25 10 -55 10 -30 0 -55 5 -55 10 0 6 -22 10 -50 10 -27 0 -50 5 -50 10 0 6 -28 10 -65 10 -37 0 -65 4 -65 10 0 7 -1002 10 -2985 10 -2985 0 -2985 0 -2985 -2455 z "></path></g></g></svg>